<?xml version="1.0" encoding="utf-8"?>
<!-- Generator: Adobe Illustrator 23.0.2, SVG Export Plug-In . SVG Version: 6.00 Build 0)  -->
<svg version="1.1" id="Calque_1" xmlns="http://www.w3.org/2000/svg" xmlns:xlink="http://www.w3.org/1999/xlink" x="0px" y="0px"
	 viewBox="0 0 200 33.8" style="enable-background:new 0 0 200 33.8;" xml:space="preserve">
<style type="text/css">
	.st0{fill:#FFFFFF;}
	.st1{fill:#F7931E;}
</style>
<rect class="st0" width="200" height="33.8"/>
<g>
	<path class="st1" d="M20.69,7.79c0,2.8-1.69,4.92-4.42,5.6c3.38,0.57,5.39,2.98,5.39,6.36c0,4.31-3.48,6.9-9.16,6.9H1.33V1.51
		h10.92C17.46,1.51,20.69,3.88,20.69,7.79z M16.35,8.55c0-2.08-1.62-3.27-4.31-3.23H5.57v6.61h6.47
		C14.73,11.92,16.35,10.7,16.35,8.55z M17.32,19.22c0-2.23-1.98-3.59-5.28-3.56H5.57v7.18h6.47C15.34,22.88,17.32,21.55,17.32,19.22
		z"/>
	<path class="st1" d="M44.58,17.06c0,5.78-4.06,9.73-9.95,9.73c-5.93,0-9.99-3.95-9.99-9.73c0-5.75,4.06-9.66,9.99-9.66
		C40.52,7.4,44.58,11.31,44.58,17.06z M28.78,17.13c0,3.7,2.41,6.21,5.85,6.21c3.41,0,5.82-2.51,5.82-6.21
		c0-3.66-2.41-6.21-5.82-6.21C31.19,10.92,28.78,13.47,28.78,17.13z"/>
	<path class="st1" d="M53.21,0v26.65h-4.13V0H53.21z"/>
	<path class="st1" d="M77.71,0v26.65h-4.13v-3.27c-1.36,2.23-3.66,3.45-6.72,3.45c-5.5,0-9.16-3.99-9.16-9.81
		c0-5.75,3.7-9.66,9.09-9.66c3.09,0,5.39,1.26,6.79,3.48V0H77.71z M73.58,17.17c0-3.7-2.41-6.29-5.85-6.29s-5.85,2.62-5.89,6.29
		c0.04,3.63,2.41,6.21,5.89,6.21C71.17,23.38,73.58,20.8,73.58,17.17z"/>
	<path class="st1" d="M88.31,0v26.65h-4.13V0H88.31z"/>
	<path class="st1" d="M95.89,33.8c-1.72,0-3.09-0.5-4.42-1.62l1.76-3.2c0.9,0.65,1.62,0.93,2.48,0.93c1.26,0,2.26-0.68,2.91-2.12
		l0.65-1.44l-7.9-18.82h4.27l5.71,14.48l5.32-14.48h4.13l-8.69,21.73C100.92,32.29,98.76,33.8,95.89,33.8z"/>
	<path d="M112.59,1.54l7.62,23.31l7.61-23.31h1.58l7.65,23.31l7.58-23.31h1.62l-8.48,25.11h-1.54l-7.62-22.99l-7.65,22.99h-1.58
		L110.9,1.54H112.59z"/>
	<path d="M164.47,17.71h-16.34c0.21,4.56,3.38,7.61,7.72,7.61c2.55,0,4.81-0.93,6.32-2.59l0.86,0.97c-1.72,1.87-4.27,2.98-7.26,2.98
		c-5.28,0-9.12-3.88-9.12-9.38c0-5.5,3.84-9.41,9.12-9.41C161.27,7.9,164.57,11.92,164.47,17.71z M163.1,16.38
		c-0.29-4.24-3.05-7.11-7.33-7.11c-4.2,0-7.26,2.87-7.62,7.11H163.1z"/>
	<path d="M181.85,26.65l-0.04-3.7c-1.58,2.59-4.24,3.74-7.47,3.74c-3.7,0-6.18-2.33-6.18-5.5c0-3.12,2.66-5.03,6.97-5.03h6.64v-1.83
		c-0.04-3.16-1.87-5.06-5.6-5.06c-2.33,0-4.31,0.93-6.29,2.44l-0.72-1.15c2.23-1.62,4.38-2.66,7.22-2.66c4.42,0,6.83,2.44,6.86,6.32
		l0.07,12.43H181.85z M181.82,20.55v-3.05h-6.54c-3.66,0-5.67,1.26-5.67,3.66c0,2.48,1.9,4.17,4.96,4.17
		C178.05,25.32,180.67,23.81,181.82,20.55z"/>
	<path d="M198.67,7.9v1.54c-4.13,0-6.65,2.73-6.97,7.08v10.13h-1.51V7.94h1.51v4.71C192.88,9.63,195.33,7.97,198.67,7.9z"/>
</g>
</svg>
